# xmcd CD database file
#
# Track frame offsets:
#	150
#	9469
#	27248
#	43538
#	57038
#	80541
#	99113
#	115264
#	128225
#	148960
#	168006
#	186127
#	209915
#	242697
#
# Disc length: 3453 seconds
#
# Revision: 0
# Processed by: cddbd v1.5.2PL0 Copyright (c) Steve Scherf et al.
# Submitted via: CDex 1.70beta2
#
DISCID=b90d7b0e
DTITLE=Various Artist - ACT:Fahrt ins Blaue 2
DYEAR=2018
DGENRE=Jazz
TTITLE0=WDR BigBand and Gil Goldstein - Moanin' (Prelude)
TTITLE1=Torsten Goods, Ida Sand, Wolfgang Haffner - When Love Comes to Town
TTITLE2=Viktoria Tolstoy - Paradise
TTITLE3=Joe Sample and Nils Landgren - Don't Take My Love to Hollywood
TTITLE4=Bernard Purdie, Hank Crawford, Cornell Dupree, Benny Green - Joshua
TTITLE5=Ida Sand and Raul Midón - He Ain't Heavy, He's My Brother
TTITLE6=Magnus Lindgren Stockholm Underground - Penny Blue
TTITLE7=Mighty Sam McClain - I Wish I Had a Girl Like You
TTITLE8=Youn Sun Nah and Marc Ribot - She Moves On
TTITLE9=Solveigh Slettahjell, Knut Reiersrud, In The County - Holy Joe
TTITLE10=Muriel Zoe - Rikki Don't Lose That Number
TTITLE11=Nils Landgren Funk Unit and Ray Parker Jr. - Just a Kiss Away
TTITLE12=Randy Brecker, Frank Chastenier, WDR BigBand - The Sidewinder
TTITLE13=Pete York and Young Friends and Wolfgang Schmid - Groovin' for Basie
EXTD=YEAR: 2018
EXTT0=
EXTT1=
EXTT2=
EXTT3=
EXTT4=
EXTT5=
EXTT6=
EXTT7=
EXTT8=
EXTT9=
EXTT10=
EXTT11=
EXTT12=
EXTT13=
PLAYORDER=
